<?xml version="1.0" encoding="utf-8"?>
<!-- Generator: Adobe Illustrator 24.1.3, SVG Export Plug-In . SVG Version: 6.00 Build 0)  -->
<svg version="1.1" id="Capa_1" xmlns="http://www.w3.org/2000/svg" xmlns:xlink="http://www.w3.org/1999/xlink" x="0px" y="0px"
	 viewBox="0 0 99 99" style="enable-background:new 0 0 99 99;" xml:space="preserve">
<style type="text/css">
	.st0{fill:#4299E1;stroke:#181818;stroke-width:0.6388;stroke-miterlimit:10;}
	.st1{fill:#FFFFFF;stroke:#181818;stroke-width:0.6388;stroke-linecap:round;stroke-linejoin:round;stroke-miterlimit:10;}
	.st2{fill:none;stroke:#181818;stroke-width:0.6388;stroke-linecap:round;stroke-linejoin:round;stroke-miterlimit:10;}
</style>
<circle class="st0" cx="49.5" cy="49.5" r="48.1"/>
<path class="st1" d="M60.7,37.7c0,0,5.6,2.7,8.8,5.3c3.8,3.1,5.5,6.5,3.8,9.2c-1.7,2.7-6.6,2.1-9.5-0.5c-2.9-2.7-4.7-4.8-4.7-4.8"/>
<path class="st1" d="M34.7,38.3c0.3-3.1,0.7-10.2,2.1-13.7S40.8,13,50.5,13s11.6,8.5,11.9,14.2S62.1,58,62,60.7
	c-0.1,2.8,0,11.9,0,14.5c0,2.6-0.4,8.8-5.1,10.4s-7.2-3.3-7.6-7c-0.3-3.7-0.7-11.3-0.7-11.3h-1.3c0,0-0.5,9.6-1.3,11.9
	s-1.6,6.8-6.4,6.7s-6.3-6-6.4-9.3c-0.1-3.3,0.1-14.5,0.3-19.7C33.8,51.7,34.3,41.8,34.7,38.3z"/>
<path class="st1" d="M39.1,37.7c0,0-5.9,0.5-9.4,3c-3.4,2.3-7.1,6.6-5.4,10.3s5.5,3,9.6,0.7c4.1-2.4,7.2-5.7,7.9-8.3"/>
<path class="st2" d="M42.1,66.1c1.7,0.5,3.3,1.2,6.1,1.2c2.8,0,5-0.4,5.7-0.9"/>
</svg>
